<svg width="12" height="11" viewBox="0 0 12 11" fill="none" xmlns="http://www.w3.org/2000/svg">
<path fill-rule="evenodd" clip-rule="evenodd" d="M11.7399 0.471504C11.8094 0.524885 11.8677 0.591433 11.9114 0.667343C11.9551 0.743254 11.9835 0.827038 11.9948 0.913908C12.0061 1.00078 12.0002 1.08903 11.9774 1.17362C11.9546 1.2582 11.9154 1.33747 11.8619 1.40688L5.19528 10.074C5.13744 10.1491 5.06423 10.2111 4.98053 10.2557C4.89683 10.3004 4.80457 10.3266 4.70992 10.3327C4.61527 10.3389 4.5204 10.3247 4.43165 10.2912C4.3429 10.2578 4.26232 10.2057 4.19528 10.1386L0.861946 6.80514C0.740507 6.6794 0.673311 6.51099 0.67483 6.33619C0.676349 6.16138 0.746462 5.99416 0.870067 5.87055C0.993672 5.74694 1.16088 5.67683 1.33568 5.67531C1.51048 5.67379 1.67888 5.74099 1.80461 5.86243L4.60128 8.65923L10.8046 0.59351C10.858 0.524046 10.9245 0.465784 11.0004 0.422055C11.0763 0.378325 11.1601 0.349984 11.247 0.338654C11.3339 0.327323 11.4221 0.333224 11.5067 0.356019C11.5913 0.378814 11.6705 0.418057 11.7399 0.471504Z" fill="white"/>
</svg>
